<svg width="144" height="20" viewBox="0 0 144 20" fill="none" xmlns="http://www.w3.org/2000/svg"><g clip-path="url(#a)"><path fill-rule="evenodd" clip-rule="evenodd" d="M45.34 19.58c-1.1.2-1.9.2-3.002 0L32.13 6.959V19.58c-1.1.198-2.802.198-3.803 0V.497c1.101-.199 1.902-.199 3.002 0L41.438 13.12V.497c1.101-.199 2.803-.199 3.803 0v19.084h.1Zm17.614-3.18c.2 1.093.2 2.087 0 3.18h-13.21V.498h13.21c.2 1.093.2 2.087 0 3.18h-9.407V8.25h8.407c.2 1.093.2 2.087 0 3.18h-8.407v4.87h9.408v.1ZM80.469.497c.2 1.093.2 2.087 0 3.18h-5.604v15.804c-1.1.199-2.702.199-3.803 0V3.678h-5.605a8.501 8.501 0 0 1 0-3.181h15.012Zm19.816 19.084c-1.1.198-3.303.198-4.403 0l-4.504-7.157-4.303 7.057c-1.101.199-3.303.199-4.404 0l6.205-9.74L82.97.497c1.101-.199 3.303-.199 4.404 0l4.203 6.66L95.58.496c1.101-.199 3.303-.199 4.404 0l-5.905 9.244 6.205 9.84Zm27.021 0c-1.1.198-2.602.198-3.702 0L120.8 7.256l-4.503 12.225a8.147 8.147 0 0 1-3.103 0l-4.403-12.225-2.802 12.225c-1.101.199-2.703.199-3.803 0L106.689.497a8.676 8.676 0 0 1 3.203 0l4.803 13.02 4.804-13.02a8.676 8.676 0 0 1 3.203 0l4.603 19.084ZM142.017 1.69c.2.596.3 3.28 0 3.578-2.001-1.292-3.703-2.087-5.404-2.087-1.802 0-2.902.894-2.902 2.286 0 1.49 1.2 1.988 4.003 2.783 2.602.795 5.604 1.988 5.604 5.864 0 3.777-3.002 5.864-6.905 5.864-2.102 0-4.304-.596-5.905-1.59-.2-.497-.3-3.28 0-3.678 2.002 1.292 4.003 2.088 5.705 2.088 2.001 0 3.102-.994 3.102-2.386 0-1.59-1.201-1.988-4.103-2.882-2.602-.895-5.505-2.088-5.505-5.666 0-3.081 2.402-5.864 6.706-5.864 2.402.1 4.203.795 5.604 1.69Z" fill="#1B1E21"/><path d="M22.237 18.654c-1.501 1.59-4.103 1.789-5.705.298L2.622 6.925C.92 5.435.82 3.05 2.321 1.36c1.5-1.59 4.002-1.69 5.704-.298l13.91 12.126c1.602 1.392 1.802 3.876.3 5.467Z" fill="#F47421"/><path d="M22.237 18.654c-1.501 1.59-4.103 1.789-5.705.298L2.622 6.925C.92 5.435.82 3.05 2.321 1.36c1.5-1.59 4.002-1.69 5.704-.298l13.91 12.126c1.602 1.392 1.802 3.876.3 5.467Z" fill="url(#b)"/><path d="M22.237 18.654c-1.501 1.59-4.103 1.789-5.705.298L2.622 6.925C.92 5.435.82 3.05 2.321 1.36c1.5-1.59 4.002-1.69 5.704-.298l13.91 12.126c1.602 1.392 1.802 3.876.3 5.467Z" fill="url(#c)"/><path d="M22.237 18.654c-1.501 1.59-4.103 1.789-5.705.298L2.622 6.925C.92 5.435.82 3.05 2.321 1.36c1.5-1.59 4.002-1.69 5.704-.298l13.91 12.126c1.602 1.392 1.802 3.876.3 5.467Z" fill="url(#d)"/><path d="M5.324 19.959c-2.302 0-4.103-1.79-4.103-3.877V4.056C1.22 1.869 3.022.08 5.324.08c2.202 0 4.103 1.79 4.103 3.976v12.026c0 2.088-1.901 3.877-4.103 3.877Z" fill="#F47421"/><path d="M5.324 19.959c-2.302 0-4.103-1.79-4.103-3.877V4.056C1.22 1.869 3.022.08 5.324.08c2.202 0 4.103 1.79 4.103 3.976v12.026c0 2.088-1.901 3.877-4.103 3.877Z" fill="url(#e)"/><path d="M12.451.795c.8-.795 2.102-.895 2.902-.199L22.46 6.76c.8.695.9 1.987.2 2.783-.8.795-2.102.894-2.902.099L12.65 3.578c-.9-.696-.9-1.988-.2-2.783Z" fill="#F47421"/><path d="M12.451.795c.8-.795 2.102-.895 2.902-.199L22.46 6.76c.8.695.9 1.987.2 2.783-.8.795-2.102.894-2.902.099L12.65 3.578c-.9-.696-.9-1.988-.2-2.783Z" fill="url(#f)"/><path d="M12.451.795c.8-.795 2.102-.895 2.902-.199L22.46 6.76c.8.695.9 1.987.2 2.783-.8.795-2.102.894-2.902.099L12.65 3.578c-.9-.696-.9-1.988-.2-2.783Z" fill="url(#g)"/><path d="M12.451.795c.8-.795 2.102-.895 2.902-.199L22.46 6.76c.8.695.9 1.987.2 2.783-.8.795-2.102.894-2.902.099L12.65 3.578c-.9-.696-.9-1.988-.2-2.783Z" fill="url(#h)"/><path d="M21.153.1c1.201 0 2.102.894 2.102 1.987v6.162c0 1.094-.9 1.988-2.102 1.988-1.1 0-2.101-.894-2.101-1.988V2.087c0-1.093 1-1.988 2.101-1.988Z" fill="#F47421"/><path d="M21.153.1c1.201 0 2.102.894 2.102 1.987v6.162c0 1.094-.9 1.988-2.102 1.988-1.1 0-2.101-.894-2.101-1.988V2.087c0-1.093 1-1.988 2.101-1.988Z" fill="url(#i)"/></g><defs><linearGradient id="b" x1="15.222" y1="7.639" x2="10.051" y2="12.678" gradientUnits="userSpaceOnUse"><stop stop-color="#F04C1C"/><stop offset=".355" stop-color="#F47421" stop-opacity="0"/></linearGradient><linearGradient id="d" x1="15.222" y1="7.639" x2="10.051" y2="12.678" gradientUnits="userSpaceOnUse"><stop offset=".5" stop-color="#F47421" stop-opacity="0"/><stop offset=".98" stop-color="#FFB000"/></linearGradient><linearGradient id="e" x1="5.315" y1="19.058" x2="5.315" y2=".387" gradientUnits="userSpaceOnUse"><stop offset=".534" stop-color="#ED3118"/><stop offset="1" stop-color="#F47421"/></linearGradient><linearGradient id="f" x1="16.111" y1="6.367" x2="18.752" y2="3.803" gradientUnits="userSpaceOnUse"><stop stop-color="#F04C1C"/><stop offset=".355" stop-color="#F47421" stop-opacity="0"/></linearGradient><linearGradient id="h" x1="16.111" y1="6.367" x2="18.752" y2="3.803" gradientUnits="userSpaceOnUse"><stop offset=".5" stop-color="#F47421" stop-opacity="0"/><stop offset=".98" stop-color="#FFB000"/></linearGradient><linearGradient id="i" x1="21.146" y1=".593" x2="21.146" y2="10.125" gradientUnits="userSpaceOnUse"><stop offset=".534" stop-color="#ED3118"/><stop offset="1" stop-color="#F47421"/></linearGradient><radialGradient id="c" cx="0" cy="0" r="1" gradientUnits="userSpaceOnUse" gradientTransform="matrix(15.1082 0 0 15.0047 12.278 10.137)"><stop offset=".328" stop-color="#F47421" stop-opacity="0"/><stop offset="1" stop-color="#FFB000"/></radialGradient><radialGradient id="g" cx="0" cy="0" r="1" gradientUnits="userSpaceOnUse" gradientTransform="matrix(-7.74361 0 0 -7.69059 17.59 5.14)"><stop offset=".328" stop-color="#F47421" stop-opacity="0"/><stop offset="1" stop-color="#FFB000"/></radialGradient><clipPath id="a"><path fill="#fff" d="M0 0h143.333v20H0z"/></clipPath></defs></svg>
